<mxfile host="Electron" agent="Mozilla/5.0 (X11; Linux x86_64) AppleWebKit/537.36 (KHTML, like Gecko) draw.io/24.7.17 Chrome/128.0.6613.36 Electron/32.0.1 Safari/537.36" version="24.7.17">
  <diagram name="Page-1" id="OnSgO_RQbx_rNO2JxQ3Z">
    <mxGraphModel dx="662" dy="1132" grid="1" gridSize="10" guides="1" tooltips="1" connect="1" arrows="1" fold="1" page="1" pageScale="1" pageWidth="850" pageHeight="1100" math="0" shadow="0">
      <root>
        <mxCell id="0" />
        <mxCell id="1" parent="0" />
        <mxCell id="LGI90dCA5WYtB48vphuy-1" value="PaymentAccount" style="whiteSpace=wrap;html=1;align=center;" parent="1" vertex="1">
          <mxGeometry x="558" y="375" width="100" height="40" as="geometry" />
        </mxCell>
        <mxCell id="LGI90dCA5WYtB48vphuy-3" style="rounded=0;orthogonalLoop=1;jettySize=auto;html=1;endArrow=none;endFill=0;" parent="1" source="LGI90dCA5WYtB48vphuy-2" target="LGI90dCA5WYtB48vphuy-1" edge="1">
          <mxGeometry relative="1" as="geometry" />
        </mxCell>
        <mxCell id="LGI90dCA5WYtB48vphuy-2" value="ID" style="ellipse;whiteSpace=wrap;html=1;align=center;fontStyle=4;" parent="1" vertex="1">
          <mxGeometry x="680" y="295" width="100" height="40" as="geometry" />
        </mxCell>
        <mxCell id="LGI90dCA5WYtB48vphuy-5" style="rounded=0;orthogonalLoop=1;jettySize=auto;html=1;endArrow=none;endFill=0;" parent="1" source="LGI90dCA5WYtB48vphuy-4" target="LGI90dCA5WYtB48vphuy-1" edge="1">
          <mxGeometry relative="1" as="geometry" />
        </mxCell>
        <mxCell id="LGI90dCA5WYtB48vphuy-4" value="Name" style="ellipse;whiteSpace=wrap;html=1;align=center;" parent="1" vertex="1">
          <mxGeometry x="730" y="350" width="100" height="40" as="geometry" />
        </mxCell>
        <mxCell id="LGI90dCA5WYtB48vphuy-6" value="Transaction" style="whiteSpace=wrap;html=1;align=center;" parent="1" vertex="1">
          <mxGeometry x="348" y="210" width="100" height="40" as="geometry" />
        </mxCell>
        <mxCell id="LGI90dCA5WYtB48vphuy-8" style="rounded=0;orthogonalLoop=1;jettySize=auto;html=1;endArrow=none;endFill=0;" parent="1" source="LGI90dCA5WYtB48vphuy-7" target="LGI90dCA5WYtB48vphuy-6" edge="1">
          <mxGeometry relative="1" as="geometry" />
        </mxCell>
        <mxCell id="LGI90dCA5WYtB48vphuy-7" value="ID" style="ellipse;whiteSpace=wrap;html=1;align=center;fontStyle=4;" parent="1" vertex="1">
          <mxGeometry x="228" y="160" width="100" height="40" as="geometry" />
        </mxCell>
        <mxCell id="LGI90dCA5WYtB48vphuy-10" style="rounded=0;orthogonalLoop=1;jettySize=auto;html=1;endArrow=none;endFill=0;" parent="1" source="LGI90dCA5WYtB48vphuy-9" target="LGI90dCA5WYtB48vphuy-6" edge="1">
          <mxGeometry relative="1" as="geometry" />
        </mxCell>
        <mxCell id="LGI90dCA5WYtB48vphuy-9" value="Date" style="ellipse;whiteSpace=wrap;html=1;align=center;" parent="1" vertex="1">
          <mxGeometry x="260" y="100" width="100" height="40" as="geometry" />
        </mxCell>
        <mxCell id="LGI90dCA5WYtB48vphuy-12" style="rounded=0;orthogonalLoop=1;jettySize=auto;html=1;endArrow=none;endFill=0;" parent="1" source="LGI90dCA5WYtB48vphuy-11" target="LGI90dCA5WYtB48vphuy-6" edge="1">
          <mxGeometry relative="1" as="geometry" />
        </mxCell>
        <mxCell id="LGI90dCA5WYtB48vphuy-11" value="Descsription" style="ellipse;whiteSpace=wrap;html=1;align=center;" parent="1" vertex="1">
          <mxGeometry x="400" y="100" width="100" height="40" as="geometry" />
        </mxCell>
        <mxCell id="LGI90dCA5WYtB48vphuy-17" style="rounded=0;orthogonalLoop=1;jettySize=auto;html=1;endArrow=none;endFill=0;" parent="1" source="LGI90dCA5WYtB48vphuy-16" target="LGI90dCA5WYtB48vphuy-6" edge="1">
          <mxGeometry relative="1" as="geometry" />
        </mxCell>
        <mxCell id="LGI90dCA5WYtB48vphuy-16" value="Amount" style="ellipse;whiteSpace=wrap;html=1;align=center;" parent="1" vertex="1">
          <mxGeometry x="480" y="150" width="100" height="40" as="geometry" />
        </mxCell>
        <mxCell id="LGI90dCA5WYtB48vphuy-77" style="rounded=0;orthogonalLoop=1;jettySize=auto;html=1;endArrow=none;endFill=0;" parent="1" source="LGI90dCA5WYtB48vphuy-20" target="LGI90dCA5WYtB48vphuy-76" edge="1">
          <mxGeometry relative="1" as="geometry" />
        </mxCell>
        <mxCell id="LGI90dCA5WYtB48vphuy-81" value="&lt;font style=&quot;font-size: 16px;&quot;&gt;1..*&lt;/font&gt;" style="edgeLabel;html=1;align=center;verticalAlign=middle;resizable=0;points=[];" parent="LGI90dCA5WYtB48vphuy-77" vertex="1" connectable="0">
          <mxGeometry x="0.0246" relative="1" as="geometry">
            <mxPoint as="offset" />
          </mxGeometry>
        </mxCell>
        <mxCell id="LGI90dCA5WYtB48vphuy-88" style="rounded=0;orthogonalLoop=1;jettySize=auto;html=1;endArrow=none;endFill=0;" parent="1" source="LGI90dCA5WYtB48vphuy-6" target="LGI90dCA5WYtB48vphuy-86" edge="1">
          <mxGeometry relative="1" as="geometry" />
        </mxCell>
        <mxCell id="LGI90dCA5WYtB48vphuy-97" value="&lt;font style=&quot;font-size: 16px;&quot;&gt;*&lt;/font&gt;" style="edgeLabel;html=1;align=center;verticalAlign=middle;resizable=0;points=[];" parent="LGI90dCA5WYtB48vphuy-88" vertex="1" connectable="0">
          <mxGeometry x="-0.1561" y="1" relative="1" as="geometry">
            <mxPoint as="offset" />
          </mxGeometry>
        </mxCell>
        <mxCell id="LGI90dCA5WYtB48vphuy-20" value="TransactionCategory" style="whiteSpace=wrap;html=1;align=center;" parent="1" vertex="1">
          <mxGeometry x="198" y="370" width="130" height="40" as="geometry" />
        </mxCell>
        <mxCell id="LGI90dCA5WYtB48vphuy-22" style="rounded=0;orthogonalLoop=1;jettySize=auto;html=1;endArrow=none;endFill=0;" parent="1" source="LGI90dCA5WYtB48vphuy-21" target="LGI90dCA5WYtB48vphuy-20" edge="1">
          <mxGeometry relative="1" as="geometry" />
        </mxCell>
        <mxCell id="LGI90dCA5WYtB48vphuy-21" value="ID" style="ellipse;whiteSpace=wrap;html=1;align=center;fontStyle=4;" parent="1" vertex="1">
          <mxGeometry x="43" y="370" width="100" height="40" as="geometry" />
        </mxCell>
        <mxCell id="LGI90dCA5WYtB48vphuy-24" style="rounded=0;orthogonalLoop=1;jettySize=auto;html=1;endArrow=none;endFill=0;" parent="1" source="LGI90dCA5WYtB48vphuy-23" target="LGI90dCA5WYtB48vphuy-20" edge="1">
          <mxGeometry relative="1" as="geometry" />
        </mxCell>
        <mxCell id="LGI90dCA5WYtB48vphuy-23" value="Name" style="ellipse;whiteSpace=wrap;html=1;align=center;" parent="1" vertex="1">
          <mxGeometry x="58" y="310" width="100" height="40" as="geometry" />
        </mxCell>
        <mxCell id="LGI90dCA5WYtB48vphuy-36" style="rounded=0;orthogonalLoop=1;jettySize=auto;html=1;endArrow=none;endFill=0;" parent="1" source="LGI90dCA5WYtB48vphuy-27" target="LGI90dCA5WYtB48vphuy-31" edge="1">
          <mxGeometry relative="1" as="geometry" />
        </mxCell>
        <mxCell id="LGI90dCA5WYtB48vphuy-27" value="Expense" style="whiteSpace=wrap;html=1;align=center;" parent="1" vertex="1">
          <mxGeometry x="128" y="470" width="100" height="40" as="geometry" />
        </mxCell>
        <mxCell id="LGI90dCA5WYtB48vphuy-33" style="rounded=0;orthogonalLoop=1;jettySize=auto;html=1;endArrow=none;endFill=0;" parent="1" source="LGI90dCA5WYtB48vphuy-31" target="LGI90dCA5WYtB48vphuy-20" edge="1">
          <mxGeometry relative="1" as="geometry" />
        </mxCell>
        <mxCell id="LGI90dCA5WYtB48vphuy-31" value="D" style="ellipse;whiteSpace=wrap;html=1;aspect=fixed;" parent="1" vertex="1">
          <mxGeometry x="243" y="430" width="40" height="40" as="geometry" />
        </mxCell>
        <mxCell id="LGI90dCA5WYtB48vphuy-35" style="rounded=0;orthogonalLoop=1;jettySize=auto;html=1;endArrow=none;endFill=0;" parent="1" source="LGI90dCA5WYtB48vphuy-34" target="LGI90dCA5WYtB48vphuy-31" edge="1">
          <mxGeometry relative="1" as="geometry" />
        </mxCell>
        <mxCell id="LGI90dCA5WYtB48vphuy-34" value="Income" style="whiteSpace=wrap;html=1;align=center;" parent="1" vertex="1">
          <mxGeometry x="298" y="470" width="100" height="40" as="geometry" />
        </mxCell>
        <mxCell id="LGI90dCA5WYtB48vphuy-42" style="rounded=0;orthogonalLoop=1;jettySize=auto;html=1;endArrow=none;endFill=0;" parent="1" source="LGI90dCA5WYtB48vphuy-43" target="LGI90dCA5WYtB48vphuy-44" edge="1">
          <mxGeometry relative="1" as="geometry" />
        </mxCell>
        <mxCell id="LGI90dCA5WYtB48vphuy-43" value="Credit" style="whiteSpace=wrap;html=1;align=center;" parent="1" vertex="1">
          <mxGeometry x="448" y="475" width="100" height="40" as="geometry" />
        </mxCell>
        <mxCell id="LGI90dCA5WYtB48vphuy-47" style="rounded=0;orthogonalLoop=1;jettySize=auto;html=1;endArrow=none;endFill=0;" parent="1" source="LGI90dCA5WYtB48vphuy-44" target="LGI90dCA5WYtB48vphuy-1" edge="1">
          <mxGeometry relative="1" as="geometry" />
        </mxCell>
        <mxCell id="LGI90dCA5WYtB48vphuy-44" value="D" style="ellipse;whiteSpace=wrap;html=1;aspect=fixed;" parent="1" vertex="1">
          <mxGeometry x="588" y="435" width="40" height="40" as="geometry" />
        </mxCell>
        <mxCell id="LGI90dCA5WYtB48vphuy-45" style="rounded=0;orthogonalLoop=1;jettySize=auto;html=1;endArrow=none;endFill=0;" parent="1" source="LGI90dCA5WYtB48vphuy-46" target="LGI90dCA5WYtB48vphuy-44" edge="1">
          <mxGeometry relative="1" as="geometry" />
        </mxCell>
        <mxCell id="LGI90dCA5WYtB48vphuy-46" value="Debit" style="whiteSpace=wrap;html=1;align=center;" parent="1" vertex="1">
          <mxGeometry x="558" y="495" width="100" height="40" as="geometry" />
        </mxCell>
        <mxCell id="LGI90dCA5WYtB48vphuy-49" style="rounded=0;orthogonalLoop=1;jettySize=auto;html=1;endArrow=none;endFill=0;" parent="1" source="LGI90dCA5WYtB48vphuy-48" target="LGI90dCA5WYtB48vphuy-44" edge="1">
          <mxGeometry relative="1" as="geometry" />
        </mxCell>
        <mxCell id="LGI90dCA5WYtB48vphuy-48" value="Savings" style="whiteSpace=wrap;html=1;align=center;" parent="1" vertex="1">
          <mxGeometry x="668" y="475" width="100" height="40" as="geometry" />
        </mxCell>
        <mxCell id="LGI90dCA5WYtB48vphuy-51" style="rounded=0;orthogonalLoop=1;jettySize=auto;html=1;endArrow=none;endFill=0;" parent="1" source="LGI90dCA5WYtB48vphuy-50" target="LGI90dCA5WYtB48vphuy-43" edge="1">
          <mxGeometry relative="1" as="geometry" />
        </mxCell>
        <mxCell id="LGI90dCA5WYtB48vphuy-50" value="Limit" style="ellipse;whiteSpace=wrap;html=1;align=center;" parent="1" vertex="1">
          <mxGeometry x="448" y="545" width="100" height="40" as="geometry" />
        </mxCell>
        <mxCell id="LGI90dCA5WYtB48vphuy-54" style="rounded=0;orthogonalLoop=1;jettySize=auto;html=1;endArrow=none;endFill=0;" parent="1" source="LGI90dCA5WYtB48vphuy-53" target="LGI90dCA5WYtB48vphuy-48" edge="1">
          <mxGeometry relative="1" as="geometry" />
        </mxCell>
        <mxCell id="LGI90dCA5WYtB48vphuy-53" value="APR" style="ellipse;shape=doubleEllipse;margin=3;whiteSpace=wrap;html=1;align=center;" parent="1" vertex="1">
          <mxGeometry x="668" y="535" width="100" height="40" as="geometry" />
        </mxCell>
        <mxCell id="LGI90dCA5WYtB48vphuy-56" style="rounded=0;orthogonalLoop=1;jettySize=auto;html=1;endArrow=none;endFill=0;" parent="1" source="LGI90dCA5WYtB48vphuy-55" target="LGI90dCA5WYtB48vphuy-53" edge="1">
          <mxGeometry relative="1" as="geometry" />
        </mxCell>
        <mxCell id="LGI90dCA5WYtB48vphuy-55" value="MinBalance" style="ellipse;whiteSpace=wrap;html=1;align=center;" parent="1" vertex="1">
          <mxGeometry x="738" y="585" width="100" height="40" as="geometry" />
        </mxCell>
        <mxCell id="LGI90dCA5WYtB48vphuy-58" style="rounded=0;orthogonalLoop=1;jettySize=auto;html=1;endArrow=none;endFill=0;" parent="1" source="LGI90dCA5WYtB48vphuy-57" target="LGI90dCA5WYtB48vphuy-53" edge="1">
          <mxGeometry relative="1" as="geometry" />
        </mxCell>
        <mxCell id="LGI90dCA5WYtB48vphuy-57" value="InterestRate" style="ellipse;whiteSpace=wrap;html=1;align=center;" parent="1" vertex="1">
          <mxGeometry x="598" y="585" width="100" height="40" as="geometry" />
        </mxCell>
        <mxCell id="LGI90dCA5WYtB48vphuy-61" style="rounded=0;orthogonalLoop=1;jettySize=auto;html=1;endArrow=none;endFill=0;" parent="1" source="LGI90dCA5WYtB48vphuy-60" target="LGI90dCA5WYtB48vphuy-27" edge="1">
          <mxGeometry relative="1" as="geometry" />
        </mxCell>
        <mxCell id="LGI90dCA5WYtB48vphuy-60" value="MonthlyBudget" style="ellipse;whiteSpace=wrap;html=1;align=center;" parent="1" vertex="1">
          <mxGeometry x="90" y="520" width="100" height="40" as="geometry" />
        </mxCell>
        <mxCell id="LGI90dCA5WYtB48vphuy-63" style="rounded=0;orthogonalLoop=1;jettySize=auto;html=1;endArrow=none;endFill=0;" parent="1" source="LGI90dCA5WYtB48vphuy-62" target="LGI90dCA5WYtB48vphuy-34" edge="1">
          <mxGeometry relative="1" as="geometry" />
        </mxCell>
        <mxCell id="LGI90dCA5WYtB48vphuy-62" value="MonthlyExpected" style="ellipse;whiteSpace=wrap;html=1;align=center;" parent="1" vertex="1">
          <mxGeometry x="328" y="530" width="100" height="40" as="geometry" />
        </mxCell>
        <mxCell id="LGI90dCA5WYtB48vphuy-65" value="Job" style="whiteSpace=wrap;html=1;align=center;" parent="1" vertex="1">
          <mxGeometry x="208" y="690" width="100" height="40" as="geometry" />
        </mxCell>
        <mxCell id="LGI90dCA5WYtB48vphuy-67" style="rounded=0;orthogonalLoop=1;jettySize=auto;html=1;endArrow=none;endFill=0;" parent="1" source="LGI90dCA5WYtB48vphuy-66" target="LGI90dCA5WYtB48vphuy-65" edge="1">
          <mxGeometry relative="1" as="geometry" />
        </mxCell>
        <mxCell id="LGI90dCA5WYtB48vphuy-66" value="ID" style="ellipse;whiteSpace=wrap;html=1;align=center;fontStyle=4;" parent="1" vertex="1">
          <mxGeometry x="43" y="710" width="100" height="40" as="geometry" />
        </mxCell>
        <mxCell id="LGI90dCA5WYtB48vphuy-69" style="rounded=0;orthogonalLoop=1;jettySize=auto;html=1;endArrow=none;endFill=0;" parent="1" source="LGI90dCA5WYtB48vphuy-68" target="LGI90dCA5WYtB48vphuy-65" edge="1">
          <mxGeometry relative="1" as="geometry" />
        </mxCell>
        <mxCell id="LGI90dCA5WYtB48vphuy-68" value="Name" style="ellipse;whiteSpace=wrap;html=1;align=center;" parent="1" vertex="1">
          <mxGeometry x="68" y="770" width="100" height="40" as="geometry" />
        </mxCell>
        <mxCell id="LGI90dCA5WYtB48vphuy-71" style="rounded=0;orthogonalLoop=1;jettySize=auto;html=1;endArrow=none;endFill=0;" parent="1" source="LGI90dCA5WYtB48vphuy-70" target="LGI90dCA5WYtB48vphuy-65" edge="1">
          <mxGeometry relative="1" as="geometry" />
        </mxCell>
        <mxCell id="LGI90dCA5WYtB48vphuy-70" value="Wage" style="ellipse;whiteSpace=wrap;html=1;align=center;" parent="1" vertex="1">
          <mxGeometry x="168" y="790" width="100" height="40" as="geometry" />
        </mxCell>
        <mxCell id="LGI90dCA5WYtB48vphuy-73" style="rounded=0;orthogonalLoop=1;jettySize=auto;html=1;endArrow=none;endFill=0;" parent="1" source="LGI90dCA5WYtB48vphuy-72" target="LGI90dCA5WYtB48vphuy-65" edge="1">
          <mxGeometry relative="1" as="geometry" />
        </mxCell>
        <mxCell id="LGI90dCA5WYtB48vphuy-72" value="MonthlyHours" style="ellipse;whiteSpace=wrap;html=1;align=center;" parent="1" vertex="1">
          <mxGeometry x="278" y="800" width="100" height="40" as="geometry" />
        </mxCell>
        <mxCell id="LGI90dCA5WYtB48vphuy-75" style="rounded=0;orthogonalLoop=1;jettySize=auto;html=1;endArrow=none;endFill=0;" parent="1" source="LGI90dCA5WYtB48vphuy-74" target="LGI90dCA5WYtB48vphuy-65" edge="1">
          <mxGeometry relative="1" as="geometry" />
        </mxCell>
        <mxCell id="LGI90dCA5WYtB48vphuy-74" value="MonthlyMissHours" style="ellipse;whiteSpace=wrap;html=1;align=center;" parent="1" vertex="1">
          <mxGeometry x="328" y="750" width="120" height="40" as="geometry" />
        </mxCell>
        <mxCell id="LGI90dCA5WYtB48vphuy-78" style="rounded=0;orthogonalLoop=1;jettySize=auto;html=1;endArrow=none;endFill=0;" parent="1" source="LGI90dCA5WYtB48vphuy-76" edge="1">
          <mxGeometry relative="1" as="geometry">
            <mxPoint x="367" y="250" as="targetPoint" />
          </mxGeometry>
        </mxCell>
        <mxCell id="LGI90dCA5WYtB48vphuy-79" value="*" style="edgeLabel;html=1;align=center;verticalAlign=middle;resizable=0;points=[];fontSize=16;" parent="LGI90dCA5WYtB48vphuy-78" vertex="1" connectable="0">
          <mxGeometry x="0.0471" y="2" relative="1" as="geometry">
            <mxPoint x="1" y="5" as="offset" />
          </mxGeometry>
        </mxCell>
        <mxCell id="LGI90dCA5WYtB48vphuy-76" value="Belongs to" style="shape=rhombus;perimeter=rhombusPerimeter;whiteSpace=wrap;html=1;align=center;" parent="1" vertex="1">
          <mxGeometry x="228" y="270" width="120" height="60" as="geometry" />
        </mxCell>
        <mxCell id="LGI90dCA5WYtB48vphuy-87" style="rounded=0;orthogonalLoop=1;jettySize=auto;html=1;endArrow=none;endFill=0;" parent="1" source="LGI90dCA5WYtB48vphuy-86" target="LGI90dCA5WYtB48vphuy-1" edge="1">
          <mxGeometry relative="1" as="geometry" />
        </mxCell>
        <mxCell id="LGI90dCA5WYtB48vphuy-96" value="&lt;font style=&quot;font-size: 16px;&quot;&gt;1&lt;/font&gt;" style="edgeLabel;html=1;align=center;verticalAlign=middle;resizable=0;points=[];" parent="LGI90dCA5WYtB48vphuy-87" vertex="1" connectable="0">
          <mxGeometry x="-0.0278" y="-1" relative="1" as="geometry">
            <mxPoint as="offset" />
          </mxGeometry>
        </mxCell>
        <mxCell id="LGI90dCA5WYtB48vphuy-86" value="Applies to" style="shape=rhombus;perimeter=rhombusPerimeter;whiteSpace=wrap;html=1;align=center;" parent="1" vertex="1">
          <mxGeometry x="490" y="260" width="120" height="60" as="geometry" />
        </mxCell>
        <mxCell id="LGI90dCA5WYtB48vphuy-92" style="rounded=0;orthogonalLoop=1;jettySize=auto;html=1;endArrow=none;endFill=0;" parent="1" source="LGI90dCA5WYtB48vphuy-89" target="LGI90dCA5WYtB48vphuy-34" edge="1">
          <mxGeometry relative="1" as="geometry" />
        </mxCell>
        <mxCell id="LGI90dCA5WYtB48vphuy-95" value="&lt;font style=&quot;font-size: 16px;&quot;&gt;0..1&lt;/font&gt;" style="edgeLabel;html=1;align=center;verticalAlign=middle;resizable=0;points=[];" parent="LGI90dCA5WYtB48vphuy-92" vertex="1" connectable="0">
          <mxGeometry x="0.0461" relative="1" as="geometry">
            <mxPoint as="offset" />
          </mxGeometry>
        </mxCell>
        <mxCell id="LGI90dCA5WYtB48vphuy-93" style="rounded=0;orthogonalLoop=1;jettySize=auto;html=1;endArrow=none;endFill=0;" parent="1" source="LGI90dCA5WYtB48vphuy-89" target="LGI90dCA5WYtB48vphuy-65" edge="1">
          <mxGeometry relative="1" as="geometry" />
        </mxCell>
        <mxCell id="LGI90dCA5WYtB48vphuy-94" value="&lt;font style=&quot;font-size: 16px;&quot;&gt;1&lt;/font&gt;" style="edgeLabel;html=1;align=center;verticalAlign=middle;resizable=0;points=[];" parent="LGI90dCA5WYtB48vphuy-93" vertex="1" connectable="0">
          <mxGeometry x="-0.1641" y="1" relative="1" as="geometry">
            <mxPoint as="offset" />
          </mxGeometry>
        </mxCell>
        <mxCell id="LGI90dCA5WYtB48vphuy-89" value="Comes from" style="shape=rhombus;perimeter=rhombusPerimeter;whiteSpace=wrap;html=1;align=center;" parent="1" vertex="1">
          <mxGeometry x="198" y="565" width="120" height="60" as="geometry" />
        </mxCell>
        <mxCell id="J0aMvwdGYoa4ecVIgPUB-1" style="rounded=0;orthogonalLoop=1;jettySize=auto;html=1;endArrow=none;endFill=0;" edge="1" parent="1">
          <mxGeometry relative="1" as="geometry">
            <mxPoint x="321" y="285" as="sourcePoint" />
            <mxPoint x="374" y="252" as="targetPoint" />
          </mxGeometry>
        </mxCell>
      </root>
    </mxGraphModel>
  </diagram>
</mxfile>
